<?xml version="1.0" encoding="UTF-8"?>
<svg width="700pt" height="700pt" version="1.1" viewBox="0 0 700 700" xmlns="http://www.w3.org/2000/svg" xmlns:xlink="http://www.w3.org/1999/xlink">
 <defs>
  <symbol id="j" overflow="visible">
   <path d="m10.422-0.625c-0.53125 0.28125-1.0898 0.49219-1.6719 0.625-0.58594 0.14453-1.1953 0.21875-1.8281 0.21875-1.8867 0-3.3828-0.52344-4.4844-1.5781-1.1055-1.0625-1.6562-2.4922-1.6562-4.2969 0-1.8125 0.55078-3.2422 1.6562-4.2969 1.1016-1.0625 2.5977-1.5938 4.4844-1.5938 0.63281 0 1.2422 0.074219 1.8281 0.21875 0.58203 0.13672 1.1406 0.34375 1.6719 0.625v2.3438c-0.54297-0.36328-1.0781-0.63281-1.6094-0.8125-0.52344-0.17578-1.0742-0.26562-1.6562-0.26562-1.043 0-1.8672 0.33984-2.4688 1.0156-0.59375 0.66797-0.89062 1.5898-0.89062 2.7656 0 1.168 0.29688 2.0859 0.89062 2.75 0.60156 0.66797 1.4258 1 2.4688 1 0.58203 0 1.1328-0.082031 1.6562-0.25 0.53125-0.17578 1.0664-0.44531 1.6094-0.8125z"/>
  </symbol>
  <symbol id="b" overflow="visible">
   <path d="m7.625-6.1875c-0.24219-0.11328-0.48047-0.19531-0.71875-0.25-0.23047-0.050781-0.46484-0.078125-0.70312-0.078125-0.69922 0-1.2344 0.22656-1.6094 0.67188-0.375 0.44922-0.5625 1.0898-0.5625 1.9219v3.9219h-2.7188v-8.5156h2.7188v1.4062c0.34375-0.5625 0.73828-0.96875 1.1875-1.2188 0.45703-0.25781 1.0039-0.39062 1.6406-0.39062 0.09375 0 0.19141 0.007812 0.29688 0.015625 0.10156 0.011719 0.25781 0.027344 0.46875 0.046875z"/>
  </symbol>
  <symbol id="a" overflow="visible">
   <path d="m9.7969-4.2812v0.78125h-6.3594c0.070312 0.63672 0.30078 1.1172 0.6875 1.4375 0.39453 0.3125 0.95312 0.46875 1.6719 0.46875 0.57031 0 1.1562-0.082031 1.75-0.25 0.60156-0.16406 1.2227-0.42188 1.8594-0.76562v2.0938c-0.64844 0.24219-1.293 0.42188-1.9375 0.54688-0.64844 0.125-1.2891 0.1875-1.9219 0.1875-1.543 0-2.7422-0.39062-3.5938-1.1719-0.85547-0.78125-1.2812-1.8789-1.2812-3.2969 0-1.3828 0.41406-2.4727 1.25-3.2656 0.84375-0.80078 2-1.2031 3.4688-1.2031 1.332 0 2.3984 0.40625 3.2031 1.2188 0.80078 0.80469 1.2031 1.875 1.2031 3.2188zm-2.7969-0.90625c0-0.50781-0.15234-0.92188-0.45312-1.2344-0.29297-0.32031-0.68359-0.48438-1.1719-0.48438-0.53125 0-0.96484 0.15234-1.2969 0.45312-0.32422 0.29297-0.52734 0.71484-0.60938 1.2656z"/>
  </symbol>
  <symbol id="g" overflow="visible">
   <path d="m5.125-3.8281c-0.57422 0-1.0078 0.10156-1.2969 0.29688-0.28125 0.1875-0.42188 0.46875-0.42188 0.84375 0 0.34375 0.11328 0.61719 0.34375 0.8125 0.23828 0.1875 0.5625 0.28125 0.96875 0.28125 0.50781 0 0.9375-0.17969 1.2812-0.54688 0.35156-0.36328 0.53125-0.82031 0.53125-1.375v-0.3125zm4.1562-1.0312v4.8594h-2.75v-1.2656c-0.36719 0.52344-0.77734 0.90234-1.2344 1.1406-0.44922 0.22656-1 0.34375-1.6562 0.34375-0.88672 0-1.6055-0.25391-2.1562-0.76562-0.54297-0.51953-0.8125-1.1875-0.8125-2 0-1 0.34375-1.7344 1.0312-2.2031s1.7656-0.70312 3.2344-0.70312h1.5938v-0.20312c0-0.4375-0.17188-0.75391-0.51562-0.95312-0.33594-0.19531-0.85938-0.29688-1.5781-0.29688-0.58594 0-1.125 0.058594-1.625 0.17188-0.5 0.11719-0.96875 0.29297-1.4062 0.53125v-2.0781c0.58203-0.14453 1.1641-0.25391 1.75-0.32812 0.59375-0.070313 1.1875-0.10938 1.7812-0.10938 1.5312 0 2.6328 0.30469 3.3125 0.90625 0.6875 0.60547 1.0312 1.5898 1.0312 2.9531z"/>
  </symbol>
  <symbol id="c" overflow="visible">
   <path d="m4.2812-10.922v2.4062h2.7969v1.9531h-2.7969v3.6094c0 0.39844 0.078125 0.66406 0.23438 0.79688 0.15625 0.13672 0.46875 0.20312 0.9375 0.20312h1.3906v1.9531h-2.3281c-1.0742 0-1.8359-0.22266-2.2812-0.67188-0.44922-0.44531-0.67188-1.207-0.67188-2.2812v-3.6094h-1.3594v-1.9531h1.3594v-2.4062z"/>
  </symbol>
  <symbol id="f" overflow="visible">
   <path d="m7.0938-7.2656v-4.5625h2.7344v11.828h-2.7344v-1.2344c-0.375 0.5-0.78906 0.87109-1.2344 1.1094-0.44922 0.22656-0.96875 0.34375-1.5625 0.34375-1.0547 0-1.918-0.41406-2.5938-1.25-0.66797-0.83203-1-1.9062-1-3.2188s0.33203-2.3828 1-3.2188c0.67578-0.83203 1.5391-1.25 2.5938-1.25 0.58203 0 1.0977 0.12109 1.5469 0.35938 0.45703 0.23047 0.875 0.59375 1.25 1.0938zm-1.7969 5.5156c0.58203 0 1.0234-0.21094 1.3281-0.64062 0.3125-0.42578 0.46875-1.0469 0.46875-1.8594s-0.15625-1.4258-0.46875-1.8438c-0.30469-0.42578-0.74609-0.64062-1.3281-0.64062-0.57422 0-1.0156 0.21484-1.3281 0.64062-0.30469 0.41797-0.45312 1.0312-0.45312 1.8438s0.14844 1.4336 0.45312 1.8594c0.3125 0.42969 0.75391 0.64062 1.3281 0.64062z"/>
  </symbol>
  <symbol id="l" overflow="visible">
   <path d="m5.8438-1.75c0.57031 0 1.0078-0.21094 1.3125-0.64062 0.3125-0.42578 0.46875-1.0469 0.46875-1.8594s-0.15625-1.4258-0.46875-1.8438c-0.30469-0.42578-0.74219-0.64062-1.3125-0.64062-0.58594 0-1.0312 0.21484-1.3438 0.64062-0.3125 0.42969-0.46875 1.043-0.46875 1.8438 0 0.80469 0.15625 1.4219 0.46875 1.8594 0.3125 0.42969 0.75781 0.64062 1.3438 0.64062zm-1.8125-5.5156c0.375-0.5 0.78516-0.86328 1.2344-1.0938 0.45703-0.23828 0.98438-0.35938 1.5781-0.35938 1.0508 0 1.9102 0.41797 2.5781 1.25 0.67578 0.83594 1.0156 1.9062 1.0156 3.2188s-0.33984 2.3867-1.0156 3.2188c-0.66797 0.83594-1.5273 1.25-2.5781 1.25-0.59375 0-1.1211-0.11719-1.5781-0.34375-0.44922-0.23828-0.85938-0.60938-1.2344-1.1094v1.2344h-2.7188v-11.828h2.7188z"/>
  </symbol>
  <symbol id="k" overflow="visible">
   <path d="m0.1875-8.5156h2.7188l2.2969 5.7812 1.9375-5.7812h2.7188l-3.5781 9.3281c-0.35547 0.9375-0.77344 1.5938-1.25 1.9688-0.48047 0.38281-1.1172 0.57812-1.9062 0.57812h-1.5625v-1.7812h0.84375c0.45703 0 0.78906-0.078125 1-0.23438 0.21875-0.14844 0.38281-0.40625 0.5-0.78125l0.078125-0.23438z"/>
  </symbol>
  <symbol id="e" overflow="visible">
   <path d="m9.8594-5.1875v5.1875h-2.7344v-3.9531c0-0.73828-0.015625-1.25-0.046875-1.5312s-0.089844-0.48828-0.17188-0.625c-0.10547-0.17578-0.25-0.3125-0.4375-0.40625-0.17969-0.10156-0.38672-0.15625-0.625-0.15625-0.5625 0-1.0078 0.22656-1.3281 0.67188-0.32422 0.4375-0.48438 1.043-0.48438 1.8125v4.1875h-2.7188v-11.828h2.7188v4.5625c0.40625-0.5 0.83594-0.86328 1.2969-1.0938 0.46875-0.23828 0.97656-0.35938 1.5312-0.35938 0.98828 0 1.7344 0.30469 2.2344 0.90625 0.50781 0.60547 0.76562 1.4805 0.76562 2.625z"/>
  </symbol>
  <symbol id="i" overflow="visible">
   <path d="m9.8594-5.1875v5.1875h-2.7344v-3.9688c0-0.72656-0.015625-1.2344-0.046875-1.5156s-0.089844-0.48828-0.17188-0.625c-0.10547-0.17578-0.25-0.3125-0.4375-0.40625-0.17969-0.10156-0.38672-0.15625-0.625-0.15625-0.5625 0-1.0078 0.22656-1.3281 0.67188-0.32422 0.4375-0.48438 1.043-0.48438 1.8125v4.1875h-2.7188v-8.5156h2.7188v1.25c0.40625-0.5 0.83594-0.86328 1.2969-1.0938 0.46875-0.23828 0.97656-0.35938 1.5312-0.35938 0.98828 0 1.7344 0.30469 2.2344 0.90625 0.50781 0.60547 0.76562 1.4805 0.76562 2.625z"/>
  </symbol>
  <symbol id="h" overflow="visible">
   <path d="m1.2188-3.3125v-5.2031h2.7344v0.85938c0 0.46094-0.007813 1.0391-0.015625 1.7344v1.3906c0 0.6875 0.015625 1.1836 0.046875 1.4844 0.039063 0.30469 0.10156 0.52344 0.1875 0.65625 0.11328 0.17969 0.25781 0.3125 0.4375 0.40625 0.17578 0.09375 0.38281 0.14062 0.625 0.14062 0.5625 0 1.0039-0.21094 1.3281-0.64062 0.32031-0.4375 0.48438-1.0469 0.48438-1.8281v-4.2031h2.7188v8.5156h-2.7188v-1.2344c-0.40625 0.5-0.83984 0.87109-1.2969 1.1094-0.46094 0.22656-0.96484 0.34375-1.5156 0.34375-0.98047 0-1.7305-0.30078-2.25-0.90625-0.51172-0.60156-0.76562-1.4766-0.76562-2.625z"/>
  </symbol>
  <symbol id="r" overflow="visible">
   <path d="m6.9062-11.828v1.7969h-1.5c-0.38672 0-0.65625 0.070312-0.8125 0.20312-0.14844 0.13672-0.21875 0.375-0.21875 0.71875v0.59375h2.3125v1.9531h-2.3125v6.5625h-2.7188v-6.5625h-1.3594v-1.9531h1.3594v-0.59375c0-0.92578 0.25391-1.6094 0.76562-2.0469 0.51953-0.44531 1.3203-0.67188 2.4062-0.67188z"/>
  </symbol>
  <symbol id="d" overflow="visible">
   <path d="m5.3594-6.7656c-0.60547 0-1.0703 0.21875-1.3906 0.65625-0.3125 0.42969-0.46875 1.0469-0.46875 1.8594s0.15625 1.4375 0.46875 1.875c0.32031 0.4375 0.78516 0.65625 1.3906 0.65625 0.59375 0 1.0469-0.21875 1.3594-0.65625s0.46875-1.0625 0.46875-1.875-0.15625-1.4297-0.46875-1.8594c-0.3125-0.4375-0.76562-0.65625-1.3594-0.65625zm0-1.9531c1.457 0 2.5977 0.39844 3.4219 1.1875 0.82031 0.79297 1.2344 1.8867 1.2344 3.2812 0 1.3984-0.41406 2.4922-1.2344 3.2812-0.82422 0.79297-1.9648 1.1875-3.4219 1.1875-1.4688 0-2.6211-0.39453-3.4531-1.1875-0.82422-0.78906-1.2344-1.8828-1.2344-3.2812 0-1.3945 0.41016-2.4883 1.2344-3.2812 0.83203-0.78906 1.9844-1.1875 3.4531-1.1875z"/>
  </symbol>
  <symbol id="q" overflow="visible">
   <path d="m9.1875-7.0938c0.35156-0.53125 0.76562-0.92969 1.2344-1.2031 0.46875-0.28125 0.98828-0.42188 1.5625-0.42188 0.97656 0 1.7227 0.30469 2.2344 0.90625 0.50781 0.60547 0.76562 1.4805 0.76562 2.625v5.1875h-2.7344v-4.4375-0.20312c0.007812-0.070313 0.015625-0.17578 0.015625-0.3125 0-0.59375-0.089844-1.0234-0.26562-1.2969-0.17969-0.28125-0.46484-0.42188-0.85938-0.42188-0.52344 0-0.92188 0.21484-1.2031 0.64062-0.28125 0.42969-0.42969 1.0469-0.4375 1.8594v4.1719h-2.7344v-4.4375c0-0.9375-0.085937-1.5391-0.25-1.8125-0.15625-0.28125-0.44531-0.42188-0.85938-0.42188-0.52344 0-0.92188 0.21875-1.2031 0.65625-0.28125 0.42969-0.42188 1.0391-0.42188 1.8281v4.1875h-2.7344v-8.5156h2.7344v1.25c0.33203-0.47656 0.71094-0.83594 1.1406-1.0781 0.4375-0.25 0.91406-0.375 1.4375-0.375 0.59375 0 1.1133 0.14844 1.5625 0.4375 0.44531 0.28125 0.78516 0.67969 1.0156 1.1875z"/>
  </symbol>
  <symbol id="p" overflow="visible">
   <path d="m1.4219-11.344h3.2812l4.125 7.7812v-7.7812h2.7656v11.344h-3.2656l-4.125-7.7812v7.7812h-2.7812z"/>
  </symbol>
  <symbol id="o" overflow="visible">
   <path d="m1.4219-11.344h4.8594c1.4453 0 2.5547 0.32422 3.3281 0.96875 0.76953 0.63672 1.1562 1.5469 1.1562 2.7344s-0.38672 2.1055-1.1562 2.75c-0.77344 0.63672-1.8828 0.95312-3.3281 0.95312h-1.9219v3.9375h-2.9375zm2.9375 2.125v3.1562h1.6094c0.57031 0 1.0078-0.13281 1.3125-0.40625 0.3125-0.28125 0.46875-0.67188 0.46875-1.1719 0-0.50781-0.15625-0.89844-0.46875-1.1719-0.30469-0.26953-0.74219-0.40625-1.3125-0.40625z"/>
  </symbol>
  <symbol id="n" overflow="visible">
   <path d="m1.3125-8.5156h2.7188v8.3594c0 1.1445-0.27734 2.0156-0.82812 2.6094-0.54297 0.60156-1.3359 0.90625-2.375 0.90625h-1.3438v-1.7812h0.46875c0.51953 0 0.875-0.12109 1.0625-0.35938 0.19531-0.23047 0.29688-0.6875 0.29688-1.375zm0-3.3125h2.7188v2.2188h-2.7188z"/>
  </symbol>
  <symbol id="m" overflow="visible">
   <path d="m8.1875-8.25v2.2188c-0.375-0.25-0.75-0.42969-1.125-0.54688-0.36719-0.125-0.75-0.1875-1.1562-0.1875-0.76172 0-1.3555 0.22656-1.7812 0.67188-0.41797 0.4375-0.625 1.0547-0.625 1.8438 0 0.79297 0.20703 1.4141 0.625 1.8594 0.42578 0.44922 1.0195 0.67188 1.7812 0.67188 0.42578 0 0.83203-0.0625 1.2188-0.1875 0.38281-0.13281 0.73828-0.32812 1.0625-0.57812v2.2344c-0.42969 0.15625-0.85938 0.26953-1.2969 0.34375-0.4375 0.082031-0.88281 0.125-1.3281 0.125-1.5312 0-2.7305-0.39062-3.5938-1.1719-0.86719-0.78906-1.2969-1.8906-1.2969-3.2969s0.42969-2.5 1.2969-3.2812c0.86328-0.78906 2.0625-1.1875 3.5938-1.1875 0.44531 0 0.88281 0.042969 1.3125 0.125 0.4375 0.074219 0.875 0.1875 1.3125 0.34375z"/>
  </symbol>
 </defs>
 <g>
  <path d="m491.55 51.746-14.805 14.805-160.7 160.7c-0.51562 0.53125-0.98828 1.1055-1.4023 1.7227-0.11719 0.17188-0.23047 0.34375-0.34375 0.51953h0.003907c-0.33203 0.52734-0.62109 1.0781-0.87109 1.6523-0.042969 0.097656-0.097656 0.1875-0.13672 0.28516-0.21484 0.53906-0.39453 1.0938-0.53516 1.6562l-22.496 91.586c-1.0391 4.2305 0.20703 8.6914 3.2852 11.77s7.543 4.3242 11.77 3.2852l91.59-22.488v0.003906c0.5625-0.14062 1.1172-0.32031 1.6562-0.53516 0.09375-0.039063 0.18359-0.09375 0.27734-0.13281v-0.003906c0.57422-0.24609 1.1328-0.53906 1.6602-0.87109 0.17578-0.10937 0.34375-0.22266 0.51562-0.33984h0.003907c0.61328-0.41797 1.1875-0.88672 1.7188-1.4023l160.68-160.69 14.801-14.801c11.801-11.43 18.523-27.117 18.656-43.543 0.13672-16.426-6.3281-32.223-17.941-43.84-11.613-11.621-27.402-18.094-43.828-17.969-16.43 0.125-32.121 6.8398-43.555 18.633zm-97.594 235.8-51.512-51.504 143.09-143.09 51.504 51.504zm-62.285-27.086 37.859 37.867-50.188 12.32zm228.98-139.61-6.0078 6.0078-51.504-51.504 6.0078-6.0078c9.1992-9.2031 22.609-12.793 35.18-9.4258 12.566 3.3672 22.383 13.184 25.75 25.75 3.3672 12.57-0.22266 25.98-9.4258 35.18z"/>
  <path d="m516.97 300.95c-6.8711 0-12.445 5.5742-12.445 12.445v187.93h-375.85v-375.85h187.93c6.8711 0 12.445-5.5742 12.445-12.445 0-6.875-5.5742-12.445-12.445-12.445h-200.36c-6.875 0-12.445 5.5703-12.445 12.445v400.74c0 3.3008 1.3125 6.4648 3.6445 8.8008 2.3359 2.332 5.5 3.6445 8.8008 3.6445h400.72c3.3008 0 6.4648-1.3125 8.8008-3.6445 2.332-2.3359 3.6445-5.5 3.6445-8.8008v-200.37c0-3.3008-1.3125-6.4648-3.6445-8.8008-2.3359-2.332-5.5-3.6445-8.8008-3.6445z"/>
 </g>
</svg>
